<svg id="b8c26ee0-3ee7-4879-938d-ebc80e003547" data-name="lol_rme_facepaint" xmlns="http://www.w3.org/2000/svg" viewBox="0 0 962.6 1894.95"><path d="M7488.29,6409.86c1.13,9.77,2.23,18.2,3.05,26.66,1.5,15.54,1.87,31.25,4.5,46.59,2.37,13.73,7.74,26.93,18,37a141.23,141.23,0,0,1,28.18,39.66c15.67,32.33,31.17,64.76,47.56,96.72,14.88,29,31,57.38,46.28,86.2,10.59,20,21,40.06,30.86,60.43,8.2,17,17.41,33,33.56,43.77a64.33,64.33,0,0,0,5.93,3.62c.8.42,1.92.24,3.94.45,4.09-9.52,6-19.81,8.56-30,5.95-24,1.91-48.37,2.83-72.55.63-16.74,2.67-32.86,10.53-48.23,4.12-8,6.27-17.56,7.19-26.62.95-9.37,6.28-13.52,13.65-16.81,1.48-.66,3-1.19,4.36-1.72l10.84,10.65c0,7.24,0,15.88,0,24.52,0,7.26-.46,14.41,2.35,21.58,1.45,3.71.79,8.64-.05,12.79-3.26,16-6.62,31.95-10.67,47.73-2,7.65-6.3,14.69-8.27,22.33-4.54,17.68-8.41,35.53-12.32,53.37-4.11,18.81-9.15,37.52-11.62,56.56-3.5,27-6.43,54.05,2.24,81,3.62,11.25,3.95,23.56,5.75,35.4.79,5.26,1.15,10.62,2.38,15.78,2.52,10.67,10.49,13.89,19.49,7.72a52.13,52.13,0,0,0,10-9.63c20.19-24,37.22-50.28,54.07-76.64,11.29-17.66,23.12-35.15,32.39-53.87,9.11-18.4,15.54-38.17,22.67-57.51,7.71-20.93,14.37-42.25,22.52-63,3.33-8.49,9.35-15.93,14.2-23.82,1.9-3.1,4.9-5.85,5.77-9.19,2.65-10.18,4.53-20.55,6.63-30.87.32-1.61-.21-3.5.42-4.92a5.66,5.66,0,0,1,3.41-2.73c.79-.2,2.49,1,2.95,2,5.79,12,13.16,23.37,15.32,36.93a11.94,11.94,0,0,0,2.91,6.17c10.54,10.79,15.2,24.27,16.94,38.67,3.53,29.39,7.22,58.79,9.25,88.3,1.57,23-4.58,44.88-15.12,65.43-.9,1.76-1.71,3.57-2.52,5.25,2,2.36,5.24,4.42,5.31,6.59.09,2.36-2.68,4.86-4.29,7.24-3.15,4.65-6.61,9.11-9.42,14a7.94,7.94,0,0,0-.41,6.39c3.25,6.79,7.06,13.32,11.14,20.83-9.22,12.34-7.93,27.3-8.63,42.15-.53,11.42-3.13,22.77-5.21,34.07-1.68,9.18-5.05,18.17-5.65,27.38-.52,8-2.83,14.26-6.42,21.34-4.91,9.67-7.51,20.86-9.24,31.7-1.4,8.78-5.37,16.11-8.81,23.87q-4.58,10.31-9.09,20.63c-2.62,6-5.41,12-7.8,18-2.57,6.54-7.62,12.38-6.36,20,8.06,3.51,10.86,3,15.31-3.45s8.65-12.57,12.51-19.13c2.09-3.57,4.65-5.26,8.7-5.29,9.77-.07,16.46-5.25,21.34-13.24,5-8.19,10.06-16.35,14.86-24.65,1.77-3.06,3.83-6.43,4.1-9.79.69-8.49,5.06-14.78,10.1-21.08,4.57-5.71,8.51-11.92,12.74-17.9a80.64,80.64,0,0,1,28-25.12c9.74-5.19,17.17-11.71,19.26-23.11.21-1.2,2.42-3.11,3.2-2.9,1.66.46,3.95,1.89,4.27,3.31,1.31,5.76,2,11.67,2.85,17.53.66,4.63-.51,11.35,2.12,13.49,5.64,4.59,4,10.11,3.49,14.71-.79,7.2-1.62,14.08-.13,21.31.49,2.38-1.81,5.33-2.92,8.26l4.85,6.8c-6.24-.62-3.82,3.11-4,6a34.29,34.29,0,0,1-2.79,10.63c-.74,2.79,3.75,3.69,1.62,8.27-2.34,5-2.36,11.51-2,17.26.31,4.75-2.1,9.17.22,14.49,1.39,3.18-2.57,8.66-4,13.12-1.64,4.92-3.82,9.75-4.65,14.81-1.18,7.21-6.57,13.14-5.88,20.84a5.08,5.08,0,0,1-1,3.67c-7.77,7.44-9.84,18.38-17.13,26.44-8.52,9.42-15.08,20.69-22,31.5-3.35,5.29-4.76,17-3.6,22.14.33,1.43,1.79,2.61,3.34,4.75l-2.44,5.89,4.78,1.5c-1.86,5.82,1.27,9.83,5.07,13.5,1.39,1.34,4.17,2.09,4.52,3.54,2.15,9.11,10,8.34,16.48,10.89,6.06,2.42,13.09,2.72,18.25,7.56,1.23,1.15,3.53,1.15,5.69,1.78-1.12,7.1-1.95,14.26-3.48,21.27-.75,3.47-3.47,6.53-4.07,10-1.17,6.75-1.4,13.65-2.17,20.47-.33,2.92-1.62,5.85-1.44,8.7.3,4.71-3.38,8.62-1.16,14.1,1.47,3.63-1.31,8.89-1.83,13.46a135.89,135.89,0,0,0-1,14.81c-.09,20.19-4.48,39.55-10.54,58.69-11.16,35.29-26.52,68.91-40.66,103-9.3,22.43-17.7,45.24-27.42,67.47-5.31,12.13-12.14,23.67-19,35-7.56,12.5-18.89,21.26-31.15,29a40.35,40.35,0,0,0-9.27,8.77c-5.49,6.68-10.39,13.83-15.92,20.47-1.91,2.29-5,3.62-7.36,5.3-3.81-3.57-2.89-8.61-7.34-10.9-1.19-.62-.55-6.86.78-9.85,2.51-5.69,6.13-10.9,9.58-16.83-13.55-17.1-29.19-30.27-52.83-30.65-20.61-.33-41.12-1.57-61.83-.49-37.57,2-75.19.39-112.71-2.93-40.1-3.55-80.21-7-120.35-10-17.91-1.37-35.89-2-53.85-2.47-37.27-.87-74.56-1.05-111.82-2.13a210,210,0,0,1-80.22-18.71c-9.11-4.08-18.17-8.32-27-12.93-19.11-10-40.08-11.56-60.88-14.24a118.9,118.9,0,0,1-69-33.08c-17.72-17.1-26.07-38.25-27.26-62.47-.44-9-.3-18-.3-27q0-315.18.09-630.36c0-13.61,1-27.24,2.24-40.81a39.31,39.31,0,0,1,9.25-21.75,35.32,35.32,0,0,0,4-6.76c3.83-7.65,8.58-9.78,16.84-7.49a24.11,24.11,0,0,0,5.81,1c14.19.3,26.93,5.36,38,13.53,25.47,18.77,53.45,32.4,83.28,42.36,6.54,2.18,13.65,3,20.56,3.5,2.79.19,7.32-1.52,8.24-3.61s-.61-6.49-2.42-8.84c-3.83-5-8.49-9.34-12.88-13.88-13.64-14.11-27.91-27.67-40.73-42.49-5.93-6.86-9.73-15.85-13.27-24.39-3.92-9.46-2.73-19.11-.15-29.26,2.71-10.69,6.81-19.94,14.43-27.66,8.09-8.19,18.43-11.43,29.47-13.42,22.24-4,37.51,8.26,51.41,22.44,33.33,34,66.35,68.6,105,96.56,33.89,24.54,68.21,49,107.14,65.53,27.86,11.84,55.78,23.55,83.89,34.78,6.35,2.53,13.55,3.57,20.44,4,7.63.45,10-3.6,7.53-11a19,19,0,0,0-2.09-4.52,918.72,918.72,0,0,1-54.89-95c-6.74-13.35-12.51-27.2-18.46-40.94a1290.55,1290.55,0,0,1-51.27-141.75c-10.14-33.77-19-67.95-27.89-102.07a170.78,170.78,0,0,1-5.56-51.45c.26-5.29.18-11,2.24-15.71,4.71-10.66,3.4-21.46,2.7-32.35-1.48-22.88-3.55-45.73-4.26-68.63-.21-6.54,3.23-13.27,5.45-19.76C7482.53,6412,7485.08,6411.54,7488.29,6409.86Zm381.33,820.24c-2.44-2.24-4.8-3.82-6.39-6-4.15-5.61-16.61-14.74-23.42-16.6-12.7-3.48-25.45-6.11-37.37-12.63-47.83-26.15-99.57-32-153-26.92-26,2.44-51,9.63-75.67,17.76a220.53,220.53,0,0,0-29.34,12.49c-20.66,10.34-39.07,24.06-56.3,39.35-16.41,14.55-32.83,29.12-40.87,50.5-5.21,13.83-9.15,27.8-5.79,42.75,3.14,13.95,5.8,28.06,9.81,41.77,6.19,21.2,17.41,39.18,34.86,53.49,21,17.19,45.18,26.39,71.18,32,30.34,6.53,61.15,9.56,92,11.94,16.29,1.26,32.67.71,48.54-3.92,44.93-13.11,79.79-40.33,107.14-77.61,15.71-21.42,25.13-46.11,34.49-70.68,6.42-16.85,11.48-34.11,24.3-47.92,3.1-3.33,2.19-10.39,3.12-15.74v-9.07c6.69-2.86,5.22-6.69,1.6-11.15C7868,7233.31,7869.25,7231.29,7869.62,7230.1Z" transform="translate(-7097.45 -6409.08)" style="fill:#1b1445;stroke:#000;stroke-miterlimit:10"/><path d="M7162.93,8303c-4,0-8,.25-11.93,0-14.6-1.11-24.12-10.07-32.09-21.25a7.65,7.65,0,0,1-1.45-3.7c-.74-12.16-5.93-23.23-8.34-35a18,18,0,0,1,.3-8.87c3.47-10.51,3.24-21.2,2.64-32-.33-5.8.06-11.64,0-17.46-.11-6.21-.43-12.42-.65-18.62-.25-7.37-.34-14.76-.75-22.12-.59-10.6-1.86-21.19-2-31.8-.32-21-.56-42,.08-62.92.45-14.93,1.29-30,3.9-44.67,3.77-21.19,13.73-39.3,31-53.17,20.66-16.64,49.87-19,74.33-6.77s38.53,32.65,47.29,57.94c7.61,22,17,43.36,24.78,65.3,6.11,17.22,11,34.88,16.28,52.39.65,2.14.44,4.54.57,6.83.44,7.82,0,15.83,1.59,23.39,1,4.8,1.07,8.58-.59,13.15-2,5.44-2.53,11.39-3.81,17.09-1.51,6.79-2.74,13.67-4.81,20.29-2.58,8.22-5.1,16.62-9.07,24.2-6.95,13.26-18.65,22.28-30.76,30.62-8.1,5.59-16.34,11-24.49,16.53a4.18,4.18,0,0,0-1.85,2.15c-2.08,11.24-11.24,13.27-20.16,16.12-10.92,3.49-21.6,7.71-32.44,11.47a24.07,24.07,0,0,1-7.52,1.46,85.49,85.49,0,0,1-9.93-.94Zm125.45-106.26c-2.87,15.14-10.71,28-19.11,42.2,11.28-5.67,18.62-15.81,21.59-28.76C7292,8205.38,7293,8200.42,7288.38,8196.7Z" transform="translate(-7097.45 -6409.08)" style="fill:#1b1445;stroke:#000;stroke-miterlimit:10"/><path d="M7231.71,6698.7c2.53,6.52,5.09,11.95,6.63,17.66.59,2.22-.9,5.17-1.87,7.61-4.87,12.27-13.78,21.37-24.84,27.78-4.69,2.72-11.3,2.88-17,2.86-6.38,0-9.69-4.91-13-10.07-1.93-3-3.43-7.68-9.58-7.07-4.63.47-7-4.28-8-8.75a60.28,60.28,0,0,1,1.92-34.39,19.85,19.85,0,0,0,.89-1.79c1-4,.59-9.84,3.15-11.84a152.34,152.34,0,0,1,24.94-15.37c7.89-4,9.14-2.26,14,6.54,2,3.63,5.7,5.62,1.07,9.45,2.55,3,5.19,6,7.63,9.1s4.13,7.9,9.34,5.07c.83,2.83,1.49,5.1,2.15,7.37Z" transform="translate(-7097.45 -6409.08)" style="fill:#1b1445;stroke:#000;stroke-miterlimit:10"/><path d="M7120.11,6463.37c6.77-.51,7.08,3.84,8.19,7,5,14.34,9.37,28.93,14.8,43.11,10.2,26.6,21.15,52.91,31.36,79.51,2.32,6,3.17,12.71,4.18,19.17.5,3.22-.5,5.57-4.18,7.82-4.68,2.87-7.78,8.25-11.75,12.37s-7.55,4.14-9.91-1c-3.14-6.82-5.18-14.18-7.53-21.35-9.06-27.61-12.25-56.28-15.46-85-.84-7.52-3.06-14.88-4.47-22.34-2-10.4-3.87-20.82-5.56-31.27C7119.38,6469,7120,6466.34,7120.11,6463.37Z" transform="translate(-7097.45 -6409.08)" style="fill:#1b1445;stroke:#000;stroke-miterlimit:10"/></svg>